<svg xmlns="http://www.w3.org/2000/svg" width="228" height="70" viewBox="0 0 228 70"><path fill="#fff" d="M21.50 65.60L68.40 65.60L68.40 69.90L0 69.90L0 65.60L9.70 65.60L9.70 0L33.70 0Q49.60 0 56.90 6.10Q64.20 12.20 64.20 24.90Q64.20 37.60 56.75 43.50Q49.30 49.40 33.90 49.40L33.90 49.40L21.50 49.40L21.50 65.60ZM35.20 38.70Q45 38.70 48.55 34.95Q52.10 31.20 52.10 23.95Q52.10 16.70 47.60 13.70Q43.10 10.70 33.50 10.70L33.50 10.70L21.50 10.70L21.50 38.70L35.20 38.70ZM89.90 65.60L128.80 65.60L128.80 69.90L68.40 69.90L68.40 65.60L78.10 65.60L78.10 0L124.70 0L124.60 11L89.90 11L89.90 30.20L120.90 30.20L120.90 41.10L89.90 41.10L89.90 65.60ZM217.40 65.60L227.10 65.60L227.10 69.90L205.60 69.90L205.60 15.30L181.20 63.80L174.60 63.80L150.30 15.30L150.30 69.90L128.80 69.90L128.80 65.60L138.50 65.60L138.50 0L156.90 0L178 43.90L199.10 0L217.40 0L217.40 65.60Z"></path></svg>