<svg xmlns="http://www.w3.org/2000/svg" width="179" height="63" viewBox="0 0 179 63"><path fill="#d00243" d="M27.20 40.20L17.10 40.20L17.10 61.70Q16.50 61.90 15.50 62.15Q14.50 62.40 13.30 62.40L13.30 62.40Q8.90 62.40 8.90 58.70L8.90 58.70L8.90 5.50Q8.90 3.90 9.70 3.05Q10.50 2.20 12.20 1.70L12.20 1.70Q15.10 0.80 19.25 0.40Q23.40 0 27.30 0L27.30 0Q40 0 45.85 5.35Q51.70 10.70 51.70 19.80L51.70 19.80Q51.70 29.10 45.70 34.65Q39.70 40.20 27.20 40.20L27.20 40.20ZM17 33.40L26.70 33.40Q34.70 33.40 39.10 30.10Q43.50 26.80 43.50 19.90L43.50 19.90Q43.50 13.10 39.25 9.95Q35 6.80 27.10 6.80L27.10 6.80Q24.40 6.80 21.75 7.05Q19.10 7.30 17 7.70L17 7.70L17 33.40ZM70 1.10L103.20 1.10Q103.50 1.60 103.80 2.45Q104.10 3.30 104.10 4.30L104.10 4.30Q104.10 6 103.30 7Q102.50 8 101 8L101 8L73.80 8L73.80 28.80L99.70 28.80Q100 29.30 100.30 30.15Q100.60 31.00 100.60 32L100.60 32Q100.60 33.70 99.80 34.70Q99 35.70 97.50 35.70L97.50 35.70L73.80 35.70L73.80 61.80Q73.30 62.00 72.25 62.20Q71.20 62.40 70.10 62.40L70.10 62.40Q65.60 62.40 65.60 58.80L65.60 58.80L65.60 5.50Q65.60 3.50 66.80 2.30Q68 1.10 70 1.10L70 1.10ZM151.90 46.10L151.90 46.10Q151.20 46.60 150.05 47.00Q148.90 47.40 147.50 47.40L147.50 47.40Q145.90 47.40 144.65 46.90Q143.40 46.40 142.90 45.30L142.90 45.30Q137.50 34.10 133.60 24.80Q129.70 15.50 127.30 9.40L127.30 9.40L126.90 9.40Q126.60 16.90 126.25 23.35Q125.90 29.80 125.50 35.95Q125.10 42.10 124.70 48.40Q124.30 54.70 123.90 61.90L123.90 61.90Q123.30 62.10 122.35 62.30Q121.40 62.50 120.30 62.50L120.30 62.50Q118.10 62.50 117.20 61.60Q116.30 60.70 116.30 59.00L116.30 59.00Q116.30 58.00 116.45 54.70Q116.60 51.40 116.90 46.70Q117.20 42 117.55 36.30Q117.90 30.60 118.35 24.70Q118.80 18.80 119.25 13.10Q119.70 7.40 120.10 2.70L120.10 2.70Q120.90 2 122.40 1.40Q123.90 0.80 125.80 0.80L125.80 0.80Q130.40 0.80 132.20 4.50L132.20 4.50Q134.10 8.40 136.05 12.75Q138 17.10 139.95 21.60Q141.90 26.10 143.75 30.50Q145.60 34.90 147.30 38.90L147.30 38.90L147.70 38.90Q149.90 33.60 152.10 28.45Q154.30 23.30 156.40 18.50Q158.50 13.70 160.40 9.50Q162.30 5.30 163.80 1.80L163.80 1.80Q164.70 1.30 166.10 1.05Q167.50 0.80 168.70 0.80L168.70 0.80Q173.40 0.80 174.10 4L174.10 4Q174.50 5.80 175 9.95Q175.50 14.10 176 19.50Q176.50 24.90 176.95 31.10Q177.40 37.30 177.80 43.05Q178.20 48.80 178.50 53.65Q178.80 58.50 179 61.30L179 61.30Q177.20 62.50 174.80 62.50L174.80 62.50Q173.30 62.50 172.15 61.75Q171 61.00 170.80 59.00L170.80 59.00Q170.30 51.70 169.90 44.50Q169.50 37.30 169.15 30.80Q168.80 24.30 168.50 18.85Q168.20 13.40 168 9.60L168 9.60L167.60 9.60Q166.50 12.40 165.05 15.90Q163.60 19.40 161.65 23.80Q159.70 28.20 157.30 33.75Q154.90 39.30 151.90 46.10Z"></path></svg>